/* XPM */
static char * icotool_xpm[] = {
/* width height ncolors chars_per_pixel */
"48 48 97 2",
/* colors */
"  	s None	c None",
" .	c #dbcfdb",
" +	c #fbfffb",
" @	c #fbf3fb",
" #	c #f3fffb",
" $	c #f3e7f3",
" %	c #e3e7f3",
" &	c #e3e7e3",
" *	c #dbe7e3",
" =	c #e3dbe3",
" -	c #dbdbe3",
" ;	c #dbdbdb",
" >	c #cbdbdb",
" ,	c #cbdbcb",
" '	c #cbcfcb",
" )	c #cbcfdb",
" !	c #cbc3cb",
" ~	c #c3cfcb",
" {	c #c3c3cb",
" ]	c #c3cfc3",
" ^	c #c3c3c3",
" /	c #7a7d7a",
" (	c #abb6b2",
" :	c #e3f3f3",
" <	c #dbdbf3",
" [	c #cbdbe3",
" }	c #c3c3db",
" |	c #000000",
" 1	c #b2abb2",
" 2	c #8a7d7a",
" 3	c #8a7d8a",
" 4	c #7a8e7a",
" 5	c #8a8e8a",
" 6	c #8a8e7a",
" 7	c #b2b6c3",
" 8	c #7a7d8a",
" 9	c #7a8e8a",
" 0	c #8a8e9a",
" a	c #8a9e8a",
" b	c #002d00",
" c	c #b2b6b2",
" d	c #424669",
" e	c #42467a",
" f	c #425d7a",
" g	c #2a4669",
" h	c #00002a",
" i	c #00ff42",
" j	c #00ff2a",
" k	c #2a0000",
" l	c #b2c3b2",
" m	c #2a002a",
" n	c #c3b6c3",
" o	c #42465a",
" p	c #b2c3c3",
" q	c #2a2d00",
" r	c #2a2d2a",
" s	c #002d2a",
" t	c #5a467a",
" u	c #9a8e8a",
" v	c #2a2d42",
" w	c #9a8e9a",
" x	c #9a9e9a",
" y	c #ab9e9a",
" z	c #ab9eab",
" A	c #9aab9a",
" B	c #abab9a",
" C	c #9a9e8a",
" D	c #422d2a",
" E	c #9a9eab",
" F	c #9aabab",
" G	c #ababab",
" H	c #8a9e9a",
" I	c #2a462a",
" J	c #422d42",
" K	c #ababb2",
" L	c #abb6ab",
" M	c #2a4642",
" N	c #424642",
" O	c #b2abab",
" P	c #42462a",
" Q	c #dbcfe3",
" R	c #b2b6ab",
" S	c #5a4642",
" T	c #425d42",
" U	c #5a465a",
" V	c #e3dbf3",
" W	c #5a5d5a",
" X	c #5a5d42",
" Y	c #425d5a",
" Z	c #e3e7fb",
" `	c #f3f3fb",
". 	c #5a5d69",
"..	c #f3e7fb",
".+	c #e3f3fb",
".@	c #5a6e5a",
".#	c #695d5a",
".$	c #695d69",
/* pixels */
" . + @ # @ + @ # $ % % & % & % * = * = * = - - ; - ; - > . > . , . ' ) ' ' ' ! ~ ! ~ { ] { ^ { /",
" ( ) # @ # @ # @ # @ # % : % * % * % * < * - - - [ - > - > ) > ) > ) ~ ) ~ ) ~ } ~ { ~ { ~ { / |",
" 1 ( 2 / 3 / 3 4 3 4 3 5 3 6 3 5 5 5 3 5 5 5 5 5 5 5 3 5 5 6 3 5 3 4 3 4 3 4 3 / 3 / 2 / / / | |",
" ( 7 4 8 4 8 9 5 4 5 9 5 9 5 5 5 9 0 5 5 5 0 a 5 5 0 5 5 9 5 5 5 9 5 9 5 4 3 4 3 4 8 4 8 / | b |",
" c c 3 | | | | | | | | | | | | | | | | | | | | | | | | | | | | | | | | | | | | | | | | | ^ | | |",
" c 7 4 | d d d e f d g d d d g d d d g d d d g d d d g d d d g d d d g d d d g d d d g d ^ h | h",
" 7 c 3 | d d e d d d d i i j i i d d d i i j i i d d d d i j i i i d d d i j i i i d d d ^ | k |",
" l 7 9 | g e f d g d i d g d d i g d i d g d d i g d d i g d d d g d d i g d d d g d d d ^ h b m",
" n l 3 | d d e o d d i o d d i o d d i o d d i o d d d j d d d o d d d j d d d o d d d o ^ b m b",
" p n 9 | f e g d d i g d d d i d d i g d d d i d d d i d d d g d d d i d d d g d d d g d ^ m b m",
" n p 3 | e e d d d j i i i j d d d j i i i j d d d d i i i j i d d d i i i j i d d d d d ^ b m q",
" p { 9 | f d d d i d d d g d d d i d d d i d d d g i d d g d d d g i d d g d d d g d d d ^ r s r",
" ^ ^ 5 | t d d o i d d o d d d o i d d o i d d o d i d o d d d o d i d o d d d o d d d o ^ q r q",
" ] { 5 | d d g i d d g d d d g i d d g d i d g d i d g d d d g d i d g d d d g d d d g d ^ r s r",
" { ^ 5 | d d d i d d d d d d d i d d d d i d d d i j i i i d d d i d d d d d d d d d d d ^ r m r",
" ~ { a | g d d d g d d d g d d d g d d d g d d d g d d d g d d d g d d d g d d d g d d d ^ r r r",
" ! ~ u | d d d o d d d o d d d o d d d o d d d o d d d o d d d o d d d o d d d o d d d o ^ r r r",
" ~ ! a / + + + + + + + + + + + + + + + + + + + + + + + + + + + + + + + + + + + + + + + + ^ v r v",
" ! ~ u a w a w x x x y x z A z A z A z B z A z A z A z x z x y x x x w C w a w 5 0 5 5 5 3 r D r",
" ~ ) a w a x x x x E A z A z F G F G F G F z F G A z A z A E A x x x H x a w a 0 a 0 a 5 9 v I v",
" ) ' w a w x x x y x z A z B z B z G G B z G z B z B z A z x z x x x x C w C w a u 5 5 5 3 I J I",
" > ) a w H x x E A z A z F G F G G G G K G G F G F G F z A z A E x x H x H w a 0 a 0 5 0 5 J I J",
" ) ' w a w x x x z A z A z G z G G G G G G G z G z A z A z A z x x x w x w a w 5 w 5 5 5 5 I J I",
" > ) a x H x A E A z F G F G L G G K L K G K G G F G F G A E A E x E x x H w a w a 0 a 5 9 J M N",
" . > w a w x x x z A z B z G G G O G 1 G O G G G z G z A z A z x y x x C w C w a u 5 5 5 5 P J P",
" > - a w H x x E A z F G G K L K L 1 L K L K G K G G F z F z A E A E x x H x a w a 0 5 0 5 N M N",
" Q > w C w x y x z A z G G G O G 1 L 1 G 1 G O G G G z B z A z x E x x x w a w a w 5 u 5 5 P J N",
" > - a x H x A E A z F G G K L 1 L 1 ( 1 L K L G G G F G A z A E A E x x H w a w a 0 a 5 9 N N N",
" - ; w a w x x x z B z B O G 1 L 1 R 1 L 1 G O G G G z A z A z A y x x C w C w a u 5 5 5 3 N N N",
" * - a w H x x E A z F G G K L 1 ( c ( 1 L 1 G K G G F z F z A E A x H x H w a w a 0 5 0 5 N N o",
" - ; w a w x x x z A z G G G O G 1 L 1 G 1 G O G G G z A z A z x x x w x w a w 5 w 5 5 5 5 N S N",
" * - a x H x x E A z F G F K L K L K L K L K L G F G F G A E A E x x x x H w a w a 0 5 5 9 o T o",
" = * w a w x x x y A z A z G G G O G 1 G O G G G z B z A z x z x y x x C w C w a u 5 5 5 3 N U T",
" * % a w H x H E A E A z F G F K G K G K G G F G F G F z A z x E x x H w H w a 0 a 0 5 5 9 U T o",
" V * u 5 w a w x x x z A z A z G G G z G G G z G z A z x z x y x x x w C w a w 5 5 5 5 5 3 T U T",
" * % a 0 a w H x H E A z A z F G F G F G F z F G A z A z A E A x H x H x a 0 a 0 5 5 5 5 9 U T W",
" % & 5 5 u a w C w x x x y A z A z B z A z B z A z A z x y x x x w C w a w 5 u 5 5 5 5 6 3 X U T",
" : % 5 0 a w a w H x x E A E A E A z A z F z A E A E x E x x H x H x a w a 0 5 0 5 5 9 3 9 W Y W",
" % % 3 5 5 5 w a w C w x x x y x z x z x z x y x z x x x x x w x w a w 5 w 5 5 5 5 6 3 6 3 X U W",
" : Z 9 5 5 0 a w a w H x H x A x x E A E A E A E x E x x H x H x a w a 0 a 0 5 5 9 5 9 5 4 W Y W",
" $ : 3 6 3 5 u a w a w a w x x x x x x x x x x x x x x C w C w a w 5 w 5 u 5 5 6 3 6 3 4 3 W W X",
" : ` 4 3 5 5 5 0 a w a w H x H x H x H x x x H x H x H w H w a w a 0 5 0 5 5 9 5 9 5 4 8 4 W W. ",
".. : 3 6 3 6 3 5 5 5 u 5 w a w a w a w x w C w C w a w a w a w 5 0 5 5 5 5 5 3 6 3 4 3 / 3 W W W",
".+ ` 4 3 4 3 9 5 9 0 a 0 a 0 a w a w H x a w H x a w a w a 0 a 0 5 0 5 5 9 5 9 5 4 3 4 8 4. .@ W",
" ` ` 2 4 3 6 3 6 3 5 5 5 u 5 w a u 5 w a w a w a w 5 w a u 5 u 5 5 5 5 6 3 6 3 4 3 / 3 / 2 W.# W",
" # `.@. .@ W W W W W Y U Y U T o T N N N N N M J M J I v I v r v r r s r s m b h b h | h |.$.@. ",
" - /.# W W W W W U X U X U T S N N N N N N P J P J I J r J r r r r r m q m b m | m | k | | |.# W",
" 4. .@.  W W W W Y W Y W T o T o T o T N M N M N I J I J I v I r r r r r s r s r b h b h | | |. "};
