/* XPM */
static const char *sun[] = {
/* columns rows colors chars-per-pixel */
"72 72 22 1 ",
"  c #F39C12",
". c #F39D12",
"X c #F1B80F",
"o c #F2A112",
"O c #F2A312",
"+ c #F3A612",
"@ c #F2AA11",
"# c #F2AC11",
"$ c #F1B011",
"% c #F2B010",
"& c #F2B210",
"* c #F2B311",
"= c #F2B510",
"- c #F2B910",
"; c #F1BC10",
": c #F2BD10",
"> c #F1BE10",
", c #F1C10F",
"< c #F1C20F",
"1 c #F1C30F",
"2 c #F1C40F",
"3 c None",
/* pixels */
"33333333333333333333333333333333333  33333333333333333333333333333333333",
"3333333333333333333333333333333333    3333333333333333333333333333333333",
"333333333333333333333333333333333      333333333333333333333333333333333",
"33333333333333333333333333333333        33333333333333333333333333333333",
"3333333333333333333333333333333         .3333333333333333333333333333333",
"333333333333333333333333333333          ..333333333333333333333333333333",
"33333333333333333333333333333           ...33333333333333333333333333333",
"3333333333333333333333333333            ....3333333333333333333333333333",
"333333333333333333333333333            ......333333333333333333333333333",
"33333333333333333333333333   O@>%>>111>%%@O...33333333333333333333333333",
"3333333333333333333333333 O%>12211112222111>%Oo3333333333333333333333333",
"333333333333333333333333@111112211112222111111>%333333333333333333333333",
"333333333             O1122222222222222211222222>o......    ...333333333",
"333333333           O>1211222222222222221122222211>o....    ...333333333",
"333333333          O>1222222222222222222222222221111o.    . ...333333333",
"333333333        O@1112222222222222222222222222211111O    .....333333333",
"333333333        %222222222222222222222222222222111222=........333333333",
"333333333       %22222222222222222222222222222221122221=.......333333333",
"333333333      @2222222222222222222222222222222222222222#......333333333",
"333333333     O222222222222222222222222222222222222222221o.....333333333",
"333333333    O22222222222222222222222222222222222222222211o..  333333333",
"333333333    X22222222222222222222222222222222222222222211-....333333333",
"333333333   O2222222222222222222222222222222222222222222111o...333333333",
"333333333   >2222222222222222222222222222222222222222222111-...333333333",
"333333333  @222222222222222222222222222222222222222222221222#..333333333",
"333333333  >2222222222222222222222222222222222222222222222221..333333333",
"333333333 O22222222222222222222222222222222222222222222222221o.333333333",
"33333333  %22222222222222222222222222222222222222222222222221#..33333333",
"3333333   >22222222222222222222222222222222222222222222222221,...3333333",
"333333   O2222222222222222222222222222222222222222222222222212o...333333",
"33333    @22222222222222222222222222222222222222222222222222,,#....33333",
"3333     %22222222222222222222222222222222222222222222222222,,=.....3333",
"333     .-2222222222222222222222222222222222222222222222222222-.     333",
"33.     .-2222222222222222222222222222222222222222222222222222-.    ..33",
"3.      .-2222222222222222222222222222222222222222222222222211-.    .  3",
"..      o,22222222222222222222222222222222222222222222222222111.    ..  ",
"....    .,22222222222222222222222222222222222222222222222221221.    ....",
"3.....  .-22222222222222222222222222222222222222222222222221221.    ...3",
"33. .....-2222222222222222222222222222222222222222222222221111-.  ....33",
"333 .....-2222222222222222222222222222222222222222222222221111=.  ...333",
"3333.....=,,22222222222222222222222222222222222222222222222222=.....3333",
"33333....#,,22222222222222222222222222222222222222222222222222#....33333",
"333333...o2222222222222222222222222222222222222222222222222211o...333333",
"3333333...,22222222222222222222222222222222222222222222222221-...3333333",
"33333333..#,2222222222222222222222222222222222222222222211111=..33333333",
"333333333.o,2222222222222222222222222222222222222222222211112o.333333333",
"333333333..,222222222222222222222222222222222222222222222211>..333333333",
"333333333..#222222222222222222222222222222222222222222222211#..333333333",
"333333333.. =,222222222222222222222222222222222222222222222,...333333333",
"333333333...o,22222222222222222222222222222222222222222222,o...333333333",
"333333333...o-22222222222222222222222222222222222222222222-....333333333",
"333333333....o,222222222222222222222222222222222222222222,oo...333333333",
"333333333   ..o,22222222222222222222222222222222222222,2,o  .. 333333333",
"333333333  ....#,,222222222222222222222222222222222222,,#   ...333333333",
"333333333.......=,2222222222222222222222222222222222222=... ...333333333",
"333333333.......o=222222222222222222222222222222222222=o.......333333333",
"333333333..       o1112222222222222222222222222222,,,o  ..     333333333",
"333333333...      .o122222222222222222222222222222,,#    .    .333333333",
"333333333...        o>1122222222222222222222222222=...      ...333333333",
"333333333...        ..o-222222222222222222212222-#....      ...333333333",
"333333333...    ... ....#>111112111122221111,,-#....... .....  333333333",
"333333333...    .... .....o=-11111112222111-=o.......... ......333333333",
"333333333.....  ....  ........#==->11>--=#..............  .....333333333",
"333333333333333333333333333..................333333333333333333333333333",
"3333333333333333333333333333....            3333333333333333333333333333",
"33333333333333333333333333333...          .33333333333333333333333333333",
"333333333333333333333333333333..  ..    ..333333333333333333333333333333",
"3333333333333333333333333333333.   .    .3333333333333333333333333333333",
"33333333333333333333333333333333........33333333333333333333333333333333",
"333333333333333333333333333333333......333333333333333333333333333333333",
"3333333333333333333333333333333333....3333333333333333333333333333333333",
"33333333333333333333333333333333333..33333333333333333333333333333333333"
};
